<?xml version="1.0" standalone="no"?>
<!DOCTYPE svg PUBLIC "-//W3C//DTD SVG 20010904//EN"
 "http://www.w3.org/TR/2001/REC-SVG-20010904/DTD/svg10.dtd">
<svg version="1.0" xmlns="http://www.w3.org/2000/svg"
 width="64.000000pt" height="64.000000pt" viewBox="0 0 64.000000 64.000000"
 preserveAspectRatio="xMidYMid meet">

<g transform="translate(0.000000,64.000000) scale(0.100000,-0.100000)"
fill="#000000" stroke="none">
<path fill="#932527"  d="M174 611 c-51 -31 -72 -111 -31 -119 12 -3 19 5 23 27 8 40 37 64 76
64 61 0 91 -78 45 -121 -20 -19 -36 -22 -147 -24 -117 -3 -125 -4 -125 -23 0
-18 8 -20 95 -23 131 -4 177 4 211 37 99 100 -26 256 -147 182z"/>
<path fill="#932527" d="M488 532 c-55 -7 -115 -98 -85 -129 16 -16 30 -5 42 32 21 62 101 72
130 15 18 -35 8 -70 -27 -94 -19 -13 -56 -16 -230 -16 -201 0 -208 -1 -208
-20 0 -19 7 -20 214 -20 118 0 226 4 240 10 35 13 66 66 66 112 0 67 -68 119
-142 110z"/>
<path fill="#932527" d="M14 235 c-13 -32 7 -35 217 -35 210 0 210 0 234 -25 41 -40 30 -92
-25 -115 -25 -11 -34 -10 -56 5 -14 9 -32 32 -40 51 -16 37 -37 41 -42 8 -13
-89 115 -149 187 -88 55 46 59 124 10 173 -37 38 -60 41 -286 41 -160 0 -195
-3 -199 -15z"/>
</g>
</svg>
